<svg fill="#000000" xmlns="http://www.w3.org/2000/svg" width="600px" height="600px" viewBox="0 0 75 75" enable-background="new 0 0 100 100" xml:space="preserve"><path d="M53.175 15H21.825c-3.225 0 -5.85 2.625 -5.85 5.85v33.225c0 3.225 2.625 5.85 5.85 5.85h31.275c3.225 0 5.85 -2.625 5.85 -5.85V20.85c0.075 -3.225 -2.55 -5.85 -5.775 -5.85zm-1.95 35.25c0 1.05 -0.9 1.95 -1.95 1.95H25.725c-1.05 0 -1.95 -0.9 -1.95 -1.95v-1.95c0 -1.05 0.9 -1.95 1.95 -1.95h23.475c1.05 0 1.95 0.9 1.95 1.95V50.25zm0 -11.775c0 1.05 -0.9 1.95 -1.95 1.95H25.725c-1.05 0 -1.95 -0.9 -1.95 -1.95v-1.95c0 -1.05 0.9 -1.95 1.95 -1.95h23.475c1.05 0 1.95 0.9 1.95 1.95v1.95zm0 -11.7c0 1.05 -0.9 1.95 -1.95 1.95H25.725c-1.05 0 -1.95 -0.9 -1.95 -1.95V24.75c0 -1.05 0.9 -1.95 1.95 -1.95h23.475c1.05 0 1.95 0.9 1.95 1.95v2.025z"/></svg>